# xmcd
#
# Track frame offsets: 
#        150
#        12882
#        25445
#        38409
#        51552
#        63483
#        75345
#        89104
#        104088
#        117865
#        132848
#        146652
#        159392
#        172378
#        187636
#        202958
#        215080
#        228679
#        243408
#        256186
#        269507
#        282179
#        296205
#
# Disc length: 4118 seconds
#
# Revision: 1
# Processed by: cddbd v1.5.2PL0 Copyright (c) Steve Scherf et al.
# Submitted via: ExactAudioCopy v0.99pb5
#
DISCID=5d101417
DTITLE=Irving Mills and His Hotsy Totsy Gang - Volume 1
DYEAR=1999
DGENRE=Jazz
TTITLE0=Doin' The New Low-Down
TTITLE1=Doin' The New Low-Down
TTITLE2=Diga Diga Doo
TTITLE3=Diga Diga Doo
TTITLE4=Don't Mess Around With Me
TTITLE5=Don't Mess Around With Me
TTITLE6=Dardanella
TTITLE7=I Couldn't If I Wanted To
TTITLE8=Since You Went Away
TTITLE9=Here's That Party Now In Person
TTITLE10=Dusky Stevedore
TTITLE11=Futuristic Rhythm
TTITLE12=Futuristic Rhythm
TTITLE13=Out Where The Blues Begin
TTITLE14=Out Where The Blues Begin
TTITLE15=At The Prom
TTITLE16=What A Night
TTITLE17=St. Louis Blues
TTITLE18=Some Fun
TTITLE19=Can't We Get Together
TTITLE20=Can't We Get Together
TTITLE21=Sweet Savannah Sue
TTITLE22=Sweet Savannah Sue
EXTD=
EXTT0=
EXTT1=
EXTT2=
EXTT3=
EXTT4=
EXTT5=
EXTT6=
EXTT7=
EXTT8=
EXTT9=
EXTT10=
EXTT11=
EXTT12=
EXTT13=
EXTT14=
EXTT15=
EXTT16=
EXTT17=
EXTT18=
EXTT19=
EXTT20=
EXTT21=
EXTT22=
PLAYORDER=
